<svg xmlns="http://www.w3.org/2000/svg" viewBox="0 0 24 24" shape-rendering="crispEdges"><rect x="7" y="1" width="10" height="3" fill="#111014"/><rect x="6" y="2" width="1" height="3" fill="#111014"/><rect x="17" y="2" width="1" height="3" fill="#111014"/><rect x="5" y="3" width="1" height="10" fill="#111014"/><rect x="18" y="3" width="1" height="4" fill="#111014"/><rect x="4" y="4" width="1" height="2" fill="#111014"/><rect x="7" y="4" width="10" height="3" fill="#FFFDF7"/><rect x="19" y="4" width="1" height="2" fill="#111014"/><rect x="3" y="5" width="1" height="2" fill="#111014"/><rect x="6" y="5" width="1" height="8" fill="#FFFDF7"/><rect x="17" y="5" width="1" height="2" fill="#FFFDF7"/><rect x="20" y="5" width="1" height="2" fill="#111014"/><rect x="2" y="6" width="1" height="12" fill="#111014"/><rect x="4" y="6" width="1" height="1" fill="#FFFFFF"/><rect x="19" y="6" width="1" height="12" fill="#F2439B"/><rect x="21" y="6" width="1" height="12" fill="#111014"/><rect x="1" y="7" width="1" height="10" fill="#111014"/><rect x="3" y="7" width="2" height="10" fill="#25B8D8"/><rect x="7" y="7" width="2" height="6" fill="#FFFDF7"/><rect x="9" y="7" width="9" height="1" fill="#111014"/><rect x="18" y="7" width="1" height="3" fill="#F25875"/><rect x="20" y="7" width="1" height="10" fill="#F2439B"/><rect x="22" y="7" width="1" height="10" fill="#111014"/><rect x="9" y="8" width="1" height="2" fill="#111014"/><rect x="10" y="8" width="1" height="1" fill="#9ACB3B"/><rect x="11" y="8" width="2" height="1" fill="#BAC133"/><rect x="13" y="8" width="1" height="1" fill="#D8B62B"/><rect x="14" y="8" width="1" height="1" fill="#E3A82D"/><rect x="15" y="8" width="1" height="1" fill="#EE9A2F"/><rect x="16" y="8" width="1" height="1" fill="#F0843F"/><rect x="17" y="8" width="1" height="1" fill="#F26D4F"/><rect x="10" y="9" width="8" height="1" fill="#111014"/><rect x="9" y="10" width="9" height="3" fill="#FFFDF7"/><rect x="18" y="10" width="1" height="8" fill="#111014"/><rect x="5" y="13" width="1" height="3" fill="#2ABCBE"/><rect x="6" y="13" width="9" height="1" fill="#111014"/><rect x="15" y="13" width="3" height="5" fill="#FFFDF7"/><rect x="6" y="14" width="1" height="1" fill="#2FBFA3"/><rect x="7" y="14" width="1" height="1" fill="#42C283"/><rect x="8" y="14" width="1" height="1" fill="#55C462"/><rect x="9" y="14" width="1" height="1" fill="#78C84F"/><rect x="10" y="14" width="1" height="1" fill="#9ACB3B"/><rect x="11" y="14" width="2" height="1" fill="#BAC133"/><rect x="13" y="14" width="1" height="1" fill="#D8B62B"/><rect x="14" y="14" width="1" height="2" fill="#111014"/><rect x="6" y="15" width="8" height="1" fill="#111014"/><rect x="5" y="16" width="1" height="2" fill="#111014"/><rect x="6" y="16" width="9" height="2" fill="#FFFDF7"/><rect x="3" y="17" width="1" height="2" fill="#111014"/><rect x="4" y="17" width="1" height="1" fill="#25B8D8"/><rect x="20" y="17" width="1" height="2" fill="#111014"/><rect x="4" y="18" width="1" height="2" fill="#111014"/><rect x="5" y="18" width="1" height="1" fill="#2ABCBE"/><rect x="6" y="18" width="1" height="1" fill="#111014"/><rect x="7" y="18" width="10" height="1" fill="#FFFDF7"/><rect x="17" y="18" width="1" height="1" fill="#111014"/><rect x="18" y="18" width="1" height="1" fill="#F25875"/><rect x="19" y="18" width="1" height="2" fill="#111014"/><rect x="5" y="19" width="1" height="2" fill="#111014"/><rect x="6" y="19" width="1" height="1" fill="#2FBFA3"/><rect x="7" y="19" width="10" height="1" fill="#111014"/><rect x="17" y="19" width="1" height="1" fill="#F26D4F"/><rect x="18" y="19" width="1" height="2" fill="#111014"/><rect x="6" y="20" width="1" height="2" fill="#111014"/><rect x="7" y="20" width="1" height="1" fill="#42C283"/><rect x="8" y="20" width="1" height="1" fill="#55C462"/><rect x="9" y="20" width="1" height="1" fill="#78C84F"/><rect x="10" y="20" width="1" height="1" fill="#9ACB3B"/><rect x="11" y="20" width="2" height="1" fill="#BAC133"/><rect x="13" y="20" width="1" height="1" fill="#D8B62B"/><rect x="14" y="20" width="1" height="1" fill="#E3A82D"/><rect x="15" y="20" width="1" height="1" fill="#EE9A2F"/><rect x="16" y="20" width="1" height="1" fill="#F0843F"/><rect x="17" y="20" width="1" height="2" fill="#111014"/><rect x="7" y="21" width="10" height="2" fill="#111014"/></svg>